<?xml version="1.0" encoding="UTF-8"?>
<svg width="1200pt" height="1200pt" version="1.1" viewBox="0 0 1200 1200" xmlns="http://www.w3.org/2000/svg">
 <path stroke="white" fill="white" d="m737.69 173.39c-2.9219 0-5.793 0.77734-8.3164 2.2539-2.5234 1.4727-4.6094 3.5938-6.043 6.1406l-200.11 7.457c-3.125-3.5195-7.6016-5.5391-12.309-5.5469-3.3086 0.003906-6.543 1.0039-9.2773 2.8672-2.7344 1.8633-4.8438 4.5078-6.0547 7.5859l-261.08 120.4h-0.003906c-2-0.83203-4.1484-1.2617-6.3203-1.2656-4.2461 0.007812-8.3281 1.6484-11.391 4.5898-3.0664 2.9375-4.8828 6.9453-5.0664 11.188l-74.258 79.484-14.863 14.07c-1.1172-0.23438-2.2539-0.35547-3.3945-0.35547-4.375 0-8.5703 1.7383-11.664 4.8281-3.0898 3.0938-4.8281 7.2891-4.8281 11.664 0.007813 4.4805 1.8359 8.7656 5.0703 11.871l-39.598 141.79c-5.0586 2.9492-8.1719 8.3633-8.1797 14.219 0.003906 3.8477 1.3477 7.5703 3.8047 10.531 2.457 2.957 5.8711 4.9609 9.6523 5.6719l59.414 144.29c-2.3633 2.9258-3.6523 6.5742-3.6562 10.336 0 4.375 1.7344 8.5703 4.8281 11.66 3.0938 3.0938 7.2891 4.832 11.664 4.832 5.125-0.007812 9.957-2.3984 13.07-6.4727l139.95 31.914v0.003907c0.52734 3.957 2.4727 7.5898 5.4766 10.223 3.0039 2.6328 6.8633 4.0859 10.855 4.0898 5.2188-0.003907 10.125-2.4805 13.23-6.6758l101.48 28.188c1.3359 2.8164 3.4453 5.1953 6.0781 6.8594 2.6367 1.668 5.6875 2.5508 8.8047 2.5547 4.375 0 8.5703-1.7383 11.66-4.8281 3.0938-3.0938 4.832-7.2891 4.832-11.664-0.007813-0.55859-0.042969-1.1133-0.10938-1.668l45.293-39.629c2.3281 1.1992 4.9102 1.8281 7.5312 1.832 5.3516-0.003907 10.367-2.6055 13.457-6.9766l54.613 18.531c0.97656 3.457 3.0547 6.5 5.918 8.6641 2.8672 2.168 6.3594 3.3398 9.9492 3.3398 1.1875-0.003906 2.3672-0.13672 3.5234-0.39453l106.89 110.62c-0.17188 0.94531-0.26172 1.9062-0.26953 2.8672 0 4.375 1.7383 8.5703 4.832 11.664s7.2891 4.832 11.66 4.832c1.1445-0.007812 2.2812-0.13281 3.3945-0.375l51.324 44.625c-0.33984 1.3242-0.51563 2.6836-0.52344 4.0508 0 4.375 1.7383 8.5703 4.832 11.66 3.0938 3.0938 7.2891 4.832 11.66 4.832 4.2148-0.003906 8.2656-1.625 11.324-4.5234 3.0586-2.8984 4.8906-6.8594 5.1211-11.066l46.965-10.133h0.003906c3.1094 4.1367 7.9844 6.5703 13.16 6.5781 4.375 0 8.5703-1.7383 11.664-4.832s4.832-7.2891 4.832-11.664-1.7383-8.5664-4.832-11.66-7.2891-4.832-11.664-4.832c-2.0469 0-4.0781 0.38281-5.9844 1.1289l-28.863-60.945c1.7891-2.6992 2.7422-5.8633 2.7461-9.0977-0.007813-1.1953-0.14453-2.3867-0.41016-3.5508l18.594-27.895h0.003906c1.6406 0.53125 3.3516 0.80469 5.0781 0.80469 5.4766-0.003906 10.594-2.7227 13.66-7.2617l59.473 4.4375c1.2461 3.0117 3.3594 5.5898 6.0664 7.4023 2.7109 1.8125 5.8945 2.7812 9.1562 2.7852 4.375 0 8.5703-1.7383 11.66-4.8281 3.0938-3.0938 4.832-7.2891 4.832-11.664-0.003906-0.48828-0.027344-0.97656-0.074219-1.4609l33.387-52.953h-0.003906c3.75-0.62109 7.1719-2.5195 9.6836-5.375h31.398c1.2656 2.9688 3.3789 5.5 6.0703 7.2812 2.6914 1.7812 5.8477 2.7305 9.0781 2.7344 4.3711 0 8.5664-1.7383 11.66-4.832 3.0938-3.0898 4.832-7.2852 4.832-11.66-0.007813-4.6758-2-9.1328-5.4805-12.254l57.105-86.242c4.0234-0.45312 7.7422-2.375 10.441-5.3945 2.6992-3.0156 4.1953-6.9258 4.1992-10.973-0.003906-3.668-1.2305-7.2266-3.4844-10.117-2.2539-2.8945-5.4062-4.9492-8.9609-5.8516l-16.344-106.77c5.0547-2.9531 8.1641-8.3672 8.1719-14.223 0-4.3711-1.7383-8.5664-4.8281-11.66-3.0938-3.0938-7.2891-4.832-11.664-4.832-0.62109 0.011719-1.2383 0.054688-1.8516 0.13281l-109.36-191.37c1.6445-2.6172 2.5195-5.6445 2.5273-8.7383 0-4.3711-1.7383-8.5664-4.8281-11.66-3.0938-3.0938-7.2891-4.832-11.664-4.832-2.9414 0.007812-5.8281 0.80078-8.3594 2.3008l-215.58-130.69c-0.80078-3.6719-2.8359-6.957-5.7617-9.3164s-6.5703-3.6484-10.328-3.6523zm-15.91 20.832c0.86328 3.1562 2.6484 5.9883 5.1289 8.125 2.4766 2.1406 5.5352 3.4961 8.7852 3.8906l24.848 109.56-233.31-113.4h0.003906c0.046875-0.30859 0.082031-0.625 0.10938-0.9375l194.44-7.2422zm29.453 5.0625 200.97 121.84-163 1.1758h0.003906c-1.3789-2.7109-3.4844-4.9883-6.0781-6.5781s-5.5781-2.4336-8.6172-2.4336c-0.60937 0.007812-1.2188 0.046875-1.8203 0.12109l-25.035-110.39c1.3828-1.0469 2.5938-2.3047 3.582-3.7266zm-255.09 8.2305c0.92578 1.8555 2.1914 3.5195 3.7344 4.9062l-85.57 132.57c-1.6172-0.51953-3.3086-0.78516-5.0078-0.78906-3.0195 0.003906-5.9805 0.83594-8.5586 2.4062-2.582 1.5742-4.6797 3.8242-6.0703 6.5039l-150.36-26.68c-0.17188-0.83984-0.40625-1.6641-0.70703-2.4688zm25.406 5.875 217.95 105.94-174.91 19.199zm-11.172 5.5664 41.602 120.96-127.67 14.012 0.003906-0.003906c-0.13672-0.3125-0.28906-0.625-0.44531-0.92969l86.512-134.04zm245.09 111.07-157.43 94.977 0.003906-0.003906c-1.3633-0.89844-2.8516-1.5898-4.418-2.0547l-24.91-72.426 186.75-20.496zm205.93 3.4062 0.003906-0.003906c0.41797 3.1328 1.7266 6.0781 3.7695 8.4844l-33.258 87.098-141.68-94.246c0.011719-0.039062 0.019532-0.074218 0.03125-0.10937l171.14-1.2305zm-719.32 5.1836 151.46 26.879 0.003906-0.003906c0.51172 1.6836 1.2891 3.2734 2.3008 4.7109l-122.03 125.77v-0.003907c-0.48438-0.054687-0.96875-0.09375-1.457-0.10547-1.043 0.003907-2.082 0.10938-3.1055 0.3125-0.90625-4.7148-1.7578-9.1797-2.9961-15.418-3.5938-18.109-8.3789-41.68-13.168-65.062-6.2539-30.547-11.414-55.477-15-72.773h0.003906c1.582-1.1914 2.9336-2.6602 3.9961-4.332zm516.62 3.9062-73.492 223.07v-0.003906c-1.625 0.39453-3.1797 1.0352-4.6094 1.8984l-79.797-117.27c2.9805-3.0703 4.6484-7.1758 4.6602-11.453-0.007813-1.1914-0.14453-2.3789-0.41016-3.543l153.65-92.695zm23.562 1.8047 145.12 96.539-43.508 113.95 0.003906-0.003906c-0.13281-0.003906-0.26562-0.003906-0.39844 0-2.0391 0-4.0586 0.37891-5.957 1.1133l-95.523-211.43c0.085937-0.046875 0.17578-0.097656 0.26172-0.14844zm-559.89 0.875 0.003907-0.003906c1.207 0.45312 2.4648 0.76562 3.7422 0.92578 3.6133 17.43 8.7109 42.086 14.852 72.07 4.7852 23.371 9.5703 46.93 13.156 64.992 1.0234 5.1484 1.6641 8.5625 2.4648 12.684l-121.14-59.961h-0.003906c-0.32031-1.7969-0.9375-3.5312-1.8281-5.1289l12.625-13.508 76.129-72.078zm759.23 2.0703 105.83 185.2-144.97-96.43 33.738-88.363 0.003906-0.003906c0.50391 0.058593 1.0117 0.09375 1.5195 0.10547 1.3047-0.003907 2.6094-0.16406 3.8789-0.47266zm-211.65 0.60547 98.109 217.14-163.5 10.898v-0.003906c-1.2969-3.5234-3.7539-6.4961-6.9688-8.4336l72.359-219.61zm-213.85 4.0273 24.91 72.418 0.003906-0.003906c-1.8359 1.0039-3.457 2.3477-4.7891 3.9609l-146.62-62.496 126.5-13.883zm-137.71 22.555 153.63 65.477-86.02 47.914v-0.007812c-2.9414-2.4102-6.625-3.7305-10.426-3.7344-0.39062-0.011718-0.78125-0.011718-1.1719 0l-56.039-109.67h0.03125zm-12.391 3.0312 57.297 112.12 0.003906-0.007813c-2.7109 3.0195-4.2148 6.9336-4.2227 10.992 0.003906 3.668 1.2266 7.2266 3.4766 10.121l-80.262 128.06c-0.32422-0.011719-0.64453-0.011719-0.96875 0-2.1758 0.003906-4.3281 0.4375-6.332 1.2773l-90.238-116.77c2.6328-3.0039 4.0859-6.8633 4.0898-10.855 0-3.7734-1.2969-7.4336-3.6719-10.363l120.83-124.53zm531.94 70.398 147.44 98.082-189.53 12.148 42.086-110.23zm-805.33 0.43359 118.49 58.645-164.4 86.734 0.003907-0.011718c-1.5664-1.2422-3.3477-2.1914-5.2578-2.7969l37.887-135.66v0.003906c5.2812-0.050781 10.223-2.625 13.289-6.9297zm445.18 2.5547 0.007812-0.011719c3.0391 2.8086 7.0195 4.3711 11.156 4.3789h0.29688l83.695 123.01h-0.003907c-0.23047 1.1016-0.34375 2.2227-0.34766 3.3438 0.007813 1.3359 0.17578 2.6641 0.5 3.9609l-56.234 85.578c-1.3711 0.011719-2.7383 0.19141-4.0625 0.53906l-123.3-162.27c1.668-2.6289 2.5547-5.6797 2.5664-8.793-0.007812-0.63672-0.054688-1.2695-0.13281-1.9023l85.871-47.828zm-98.355 65.742 123.43 162.43 0.007812-0.011719c-0.11719 0.18359-0.23047 0.36719-0.33984 0.55469l-205.3-28.688c-0.6875-2.5156-1.9609-4.832-3.7148-6.7617l79.75-127.23c0.76172 0.11328 1.5312 0.17578 2.3008 0.18359 1.3047-0.007812 2.6094-0.17188 3.875-0.48828zm-223.18 1.6055-60.145 131.34 0.007812-0.007812c-2.6953 0.68359-5.1719 2.0391-7.2031 3.9414l-95.949-47.402h-0.003906c-0.019531-0.55469-0.070312-1.1055-0.14844-1.6562l163.45-86.227zm8.3164 11.551 30.352 203.63-79.973-60.574 0.007813-0.007813c1.125-2.2695 1.7148-4.7617 1.7188-7.293-0.007813-5.7188-2.9766-11.027-7.8477-14.023l55.75-121.74zm13.211 4.6992 88.336 114.32 0.007812-0.007812c-0.86328 2.0352-1.3047 4.2227-1.3047 6.4336 0.003906 3.9375 1.418 7.7422 3.9805 10.727 2.5664 2.9844 6.1133 4.9531 10.004 5.5547l56.906 162.76v-0.003906c-1.3242 0.85547-2.5156 1.8945-3.543 3.0859l-123.14-93.27-31.238-209.61zm811.53 23.641-35.945 90.918-153.46-76.73 0.003907-0.011719c0.027343-0.33594 0.039062-0.67188 0.042969-1.0078 0-0.34375-0.007813-0.6875-0.03125-1.0312l189.39-12.137zm10.051 8.2188 15.922 104.06 0.007813-0.007813c-2.6562 1.5234-4.8398 3.7539-6.2969 6.4453l-44.516-22.262 34.891-88.25zm-233.14 11.203-21.922 140.07-140.27-129.09 0.007813-0.003906c0.03125-0.058594 0.058593-0.11328 0.085937-0.16797l162.1-10.809zm11.105 9.0469 0.007813-0.003906c1.9492 0.78516 4.0352 1.1953 6.1406 1.1992 1.6172-0.003907 3.2266-0.24609 4.7734-0.71875l89.848 118.75-116.93 18.66v-0.003906c-1.418-1.3945-3.0742-2.5234-4.8906-3.3281l21.059-134.56zm27.629 2.0664 143.85 71.922-14.328 36.238-42.555 6.7891-86.969-114.95zm-209.98 8.3438 141.07 129.84 0.007813-0.007813c-1.9141 2.7578-2.9414 6.0352-2.9414 9.3906 0.003907 0.16797 0.011719 0.33594 0.023438 0.50391l-112.45 68.191c-1.9961-1.7812-4.3984-3.0469-6.9961-3.6953l-22.312-203.31h0.003906c1.2344-0.16797 2.4453-0.48047 3.6094-0.92188zm-15.938 2.0352 21.734 198.03-70.008-100.49 0.007813-0.011719c1.7266-2.6602 2.6484-5.7656 2.6523-8.9375-0.007813-4.4023-1.7695-8.6211-4.9023-11.715l50.523-76.883zm-590.42 18.742 95.105 46.977 0.007812-0.011719c-0.019531 0.26172-0.035156 0.52734-0.042969 0.79297 0.007813 3.9336 1.4219 7.7344 3.9883 10.719l-42.938 84.738v-0.003907c-0.32812 0.03125-0.65234 0.070313-0.98047 0.12109l-57.996-140.85h0.003907c1.043-0.71484 2.0039-1.543 2.8555-2.4766zm307.12 45.426 203.37 28.418-79.527 85.125 0.007812-0.007813c-1.8398-0.69141-3.7852-1.0508-5.7461-1.0547-4.0117 0.007813-7.8828 1.4766-10.891 4.1289l-107.24-116.58h0.003907 0.03125zm664.16 2.9336 40.371 20.188-51.605 8.2344zm-664.7 14.828 102.15 111.05 0.003907-0.011718c0 0.054687-0.003907 0.10938-0.007813 0.16797 0.007813 1.7969 0.3125 3.582 0.89453 5.2812l-43.262 37.855c-2.0273-1.6406-4.4102-2.7734-6.9609-3.3125l-52.809-151.05zm-189.77 0.19141 92.094 69.75 7.8906 52.945 0.003906-0.011719c-1.3828 0.99609-2.6055 2.1992-3.6211 3.5664l-139.75-31.871c-0.47266-4.0547-2.4375-7.793-5.5078-10.484l42.102-83.102c0.50781 0.066406 1.0195 0.10547 1.5312 0.12109 1.7891-0.007813 3.5664-0.30859 5.2617-0.88672zm907.01 15.758 0.003907-0.011719c0.16797 0.15625 0.33594 0.3125 0.50781 0.46484l-56.766 85.727c-1.2344 0.082031-2.457 0.29688-3.6406 0.64844l-25.707-33.977 16.543-41.84 69.066-11.02zm-506.68 5.7031-16.105 98.797 0.003907-0.011719c-2.6211 1.4805-4.7852 3.6484-6.2617 6.2695l-53.281-18.078c-0.25-1.5625-0.72656-3.0781-1.4102-4.5078l77.059-82.48zm14.871 1.0664 73.41 105.38-80.227 2.9727 0.003906-0.011719c-0.66016-2.8438-2.0586-5.4609-4.0586-7.5859-2-2.1211-4.5273-3.6797-7.3242-4.5078l15.625-95.855-0.003906 0.003906c0.87109-0.066406 1.7305-0.19922 2.5781-0.39844zm408.54 6.5117-11.082 28.027-17.727-23.43 28.805-4.5977zm-42.645 6.8086 26.242 34.688-10.82 27.375v-0.011719c-1.1914-0.27734-2.4102-0.41797-3.6328-0.42188-4.8203 0.003906-9.3984 2.1133-12.527 5.7734l-109.58-49.809 110.32-17.602zm-117.47 27.941 112.8 51.273 0.003906-0.011719c0.32031 4.7617 2.6875 9.1562 6.4922 12.039l-27.75 44.023c-2.7617-1.9219-6.0469-2.9492-9.4102-2.9531-0.86719 0.003906-1.7344 0.078124-2.5938 0.21875l-79.539-104.59zm-30.871 3.1836v-0.011719c1.9297 1.8477 4.2773 3.1992 6.8398 3.9414l8.4375 92.84c-4.4531 3.0742-7.1172 8.1367-7.125 13.547 0.007813 2.668 0.65625 5.293 1.8984 7.6562l-16.836 25.25c-2.5234-1.4844-5.3984-2.2695-8.3281-2.2773-3.3164 0.007812-6.5547 1.0156-9.293 2.8906l-88.602-69.156c0.65625-1.793 0.99219-3.6875 1-5.5977 0-0.38281-0.015625-0.76562-0.042969-1.1484l112.05-67.941zm19.578 2.4023 80.199 105.47v-0.011719c-0.85156 1.1445-1.5508 2.3945-2.0781 3.7188l-56.836-4.2461c-0.61328-3.3125-2.2266-6.3594-4.625-8.7266-2.3945-2.3711-5.4609-3.9492-8.7812-4.5234l-8.3164-91.445h0.003907c0.14453-0.082031 0.28906-0.16406 0.43359-0.25zm-546.15 11.055 100.07 75.793-80.332-22.312v-0.011719c-0.47266-3.5391-2.0781-6.832-4.582-9.3789-2.5-2.5469-5.7617-4.2148-9.293-4.75l-5.8672-39.352zm709.89 1.6523 21.352 28.219 0.003907-0.007812c-0.39844 0.70703-0.74219 1.4453-1.0273 2.2031h-27.105c-0.23047-2.5547-1.0508-5.0234-2.4023-7.207l9.1797-23.219zm-327.75 58.215v-0.011718c0.83203 3.1289 2.5664 5.9414 4.9922 8.0938 2.4219 2.1484 5.4219 3.5352 8.6289 3.9922l6.3164 96.824-102.09-105.65c0.046875-0.078125 0.089844-0.15234 0.13672-0.23047l82.02-3.0352zm26.07 12.879 87.094 67.977-0.003906-0.015625c-0.21875 1.0781-0.33203 2.1758-0.33203 3.2773 0 0.39453 0.015625 0.78516 0.042969 1.1758l-69.945 27.582c-2.7578-3.0781-6.5703-5.0117-10.688-5.4141l-6.168-94.598zm92.297 83.562v-0.015624c0.60938 0.54297 1.2578 1.0391 1.9375 1.4883l-11.297 30.129c-4.8984 0.35547-9.3828 2.875-12.238 6.8711l-49.754-9.0469c0.050781-0.44922 0.085937-0.89844 0.097656-1.3477l71.246-28.094zm14.34 3.8125 25.789 54.445-31.914-11.793-0.003906-0.015625c-0.41406-4.293-2.4922-8.25-5.793-11.027l11.855-31.605v-0.003907h0.0625zm-80.504 39.145 41.684 7.5781-0.003906-0.015625c0.65234 4.2852 2.9688 8.1367 6.4375 10.73l-1.9062 14.754h0.003906c-2.0156 0.36719-3.9453 1.1055-5.6914 2.1797l-40.527-35.242zm70.852 15.395 35.902 13.27-45.234 9.7578-0.003906-0.019531c-0.92969-1.0625-1.9883-2.0039-3.1562-2.7969l1.8281-14.184c4.1992-0.57031 8.0156-2.7344 10.66-6.043z"/>
</svg>
